<svg xmlns="http://www.w3.org/2000/svg"><symbol id="icon-bascket" viewBox="0 0 15 15"><style>.st0{fill-rule:evenodd;clip-rule:evenodd}</style><path d="M0 0v8h12l3-8H0zm1.5 12c-.8 0-1.5.7-1.5 1.5S.7 15 1.5 15 3 14.3 3 13.5 2.3 12 1.5 12zm7 0c-.8 0-1.5.7-1.5 1.5S7.7 15 8.5 15s1.5-.7 1.5-1.5S9.3 12 8.5 12z"/></symbol><symbol id="icon-circle" viewBox="0 0 101 101"><circle class="circle" cx="50.5" cy="50.5" r="50"/></symbol><symbol id="icon-faq1" viewBox="0 0 33 15"><path d="M18 0h15l-3 8H18zm1.5 12a1.5 1.5 0 1 1 0 3 1.5 1.5 0 0 1 0-3zm7 0a1.5 1.5 0 1 1 0 3 1.5 1.5 0 0 1 0-3zM4 12V8H0V6h4V2h2v4h4v2H6v4z"/></symbol><symbol id="icon-faq3" viewBox="0 0 22 16"><path d="M14 3h4l4 5.13V13h-2.05a2.5 2.5 0 1 1-4.9 0H14zm-2-3H0v13h3.05a2.5 2.5 0 1 0 4.9 0H12z"/></symbol><symbol id="icon-footer-logo" viewBox="0 0 556.6 118.7"><path d="M24.5 2.6H2.8l5.1 19.8h21.5z"/><path d="M100.5 2.6h22.1v115.5h-22.1z"/><path d="M200.2 71.1h-.3L169.2 2.6H145v115.5h20.2V43.6h.3l33.8 74.5h21.1V2.6h-20.2z"/><path d="M308.4 2.6h-73.6v19.5h25.7v96h22.1v-96h25.8z"/><path d="M336.4 2.6l-28.6 115.5H329l6.2-24.3h30.6l5.6 24.3h21.1L364.7 2.6h-28.3zm2.9 71.7l10.9-46.7h.3l10.7 46.7h-21.9z"/><path d="M439.1 20.5c8 0 13.4 4.8 13.4 19.7h22.1C473.8 14 461.7 1 439.1 1c-21.4 0-36.5 10.2-36.5 38.7V81c0 28.5 15 38.7 36.5 38.7 8.3 0 14.7-4.5 20.6-11.2l3.4 9.6h11.5V58.9H437v18.2h15.5v7c0 9.9-5.1 16-13.4 16-8.8 0-14.4-3.5-14.4-16.3v-47c0-12.8 5.6-16.3 14.4-16.3z"/><path d="M515.6 98.6V68.2h29.3V48.7h-29.3V22.1H554V2.6h-60.5v115.5h62.1V98.6z"/><path d="M66 2.6L36.5 118.1h21L86.9 2.6z"/></symbol><symbol id="icon-logo" viewBox="0 0 114 24"><path d="M92.6 15.7l6-15.7h2l-9.2 24L81.9.7h4.4l6.3 15zm6 4.7l1.2-1.7c.5 1.1 1.7 2.5 2.4 2.9.7.5 1.6.7 2.7.7s2-.4 2.8-1.1c.8-.7 1.3-1.8 1.3-3 0-1.8-.9-3.2-2.7-4.1-1.7-.8-3.4-1.6-5.1-2.3-1.9-1.2-2.8-2.9-2.8-5.2 0-1.9.7-3.4 2-4.7 1.4-1.3 3.1-1.9 5.2-1.9 1.4 0 2.8.4 4.1 1.1 1.3.7 2.2 1.7 2.8 3l-1.2 1.6c-.5-1.5-1.4-2.5-2-3.1-.8-.6-1.8-.9-2.9-.9-1.1 0-2 .4-2.7 1.1-.7.8-1 1.9-1 3 0 1.4.9 2.6 2.7 3.5l5.1 2.4c1.9 1.3 2.8 3.1 2.8 5.4 0 2-.7 3.6-2.2 5-1.5 1.3-3.2 2-5.2 2-1.6 0-3-.3-4.2-.8-1.4-.7-2.3-1.6-3.1-2.9z"/><path d="M0 1.6h4.1l5.9 14 5.4-14h1.9L9 23.3.2 2.2m28.4 6.4v1H23c-.2 0-.4 0-.5.1-.1.1-.2.3-.2.5v4.4h5.2V16h-5.2v4.6c0 .7.4 1 1.1 1H29v1h-7.4c-.7 0-1.3-.2-1.7-.6-.4-.4-.6-1-.6-1.9v-8.7c0-1.2.2-1.9.6-2.3.4-.4 1.1-.6 1.9-.6h6.8v.1zm14 2.8l-1.2.6c-.4-.8-.9-1.5-1.6-1.9-.6-.5-1.4-.7-2.2-.7-1.4 0-2.5.7-3.2 2-.6 1.1-.9 2.5-.9 4.2 0 1.8.3 3.3.8 4.3.7 1.5 1.9 2.2 3.5 2.2.9 0 1.8-.3 2.5-1 .4-.4.9-1 1.6-2l1.1.4c-.6 1.1-1.3 1.9-2.1 2.5-1 .7-2.3 1.1-3.7 1.1-2 0-3.7-.7-5-2.1-1.3-1.4-1.9-3.2-1.9-5.4 0-2 .6-3.7 1.9-5.1 1.4-1.5 3.1-2.2 5.1-2.2 1.3 0 2.3.3 3.3.9.6.4 1.3 1.1 2 2.2zm.9-1.8v-1h8.7v1h-2.9v13h-2.9v-13h-2.9zm16.7-1.3c1.9 0 3.6.7 5.1 2.2 1.5 1.5 2.2 3.2 2.2 5.2 0 2.2-.6 3.9-1.9 5.3-1.4 1.4-3.2 2.1-5.4 2.1-1.9 0-3.6-.7-5.1-2.2-1.5-1.5-2.2-3.2-2.2-5.2 0-2.2.6-3.9 1.9-5.3C56.2 9 58 8.3 60.2 8.3zm0 1c-1 0-1.9.6-2.7 1.7-.8 1.2-1.2 2.8-1.2 4.7 0 1.9.4 3.5 1.2 4.7.7 1.1 1.6 1.7 2.7 1.7 1 0 2-.6 2.7-1.7.8-1.2 1.2-2.7 1.2-4.6 0-1.9-.4-3.5-1.2-4.6-.7-1.3-1.6-1.9-2.7-1.9zM73 22.7h-2.9V8.6h6.1c1.2 0 2.2.3 3 1 .8.7 1.2 1.6 1.2 2.7 0 1-.3 1.8-.8 2.3-.4.4-1.2.8-2.3 1.2l3.8 6.8h-3.4l-3.5-7h.3c1 0 1.7-.3 2.2-.8.5-.5.7-1.3.7-2.3 0-.8-.2-1.5-.6-1.9-.5-.6-1.3-.9-2.5-.9H73v13z"/></symbol><symbol id="icon-menu-close" viewBox="0 0 9 15"><style>.st0{fill-rule:evenodd;clip-rule:evenodd}</style><path d="M9 15L5.9 7.5l3-7.5H6L4.5 3.9 2.9 0H0l3 7.5L0 15h2.9l1.6-4 1.6 4z"/></symbol><symbol id="icon-menu" viewBox="0 0 25 15"><style>.st0{fill-rule:evenodd;clip-rule:evenodd}</style><path d="M0 0l6.1 15H9L2.9 0H0zm8 0l6.1 15H17L10.9 0H8zm10.9 0H16l6.1 15H25L18.9 0z"/></symbol><symbol id="icon-search" viewBox="0 0 18 17"><path d="M7 0C3.1 0 0 3.1 0 7s3.1 7 7 7 7-3.1 7-7-3.1-7-7-7zm0 12c-2.8 0-5-2.2-5-5s2.2-5 5-5 5 2.2 5 5-2.2 5-5 5z"/><path d="M14.021 14.01l.99-.99 2.97 2.97-.99.99z"/></symbol><symbol id="icon-tooltip-close" viewBox="0 0 10 10"><path d="M8.53.05l1.42 1.41L6.41 5l3.54 3.54-1.42 1.41L5 6.41 1.46 9.95.05 8.54 3.59 5 .05 1.46 1.46.05 5 3.59z"/></symbol><symbol id="icon-vintage-logo" viewBox="0 0 84.1 115.5"><style>.st0{fill:#000}</style><path d="M21.7 0H0l5.1 19.8h21.5z"/><path d="M63.2 0L33.7 115.5h21L84.1 0z"/></symbol></svg>